ffmpeg started on 2025-05-13 at 10:39:39
Report written to "D:\Convert\FFMetrics\reports\ssim_report-6.txt"
Log level: 32
Command line:
ffmpeg -hide_banner -nostdin -i "G:\\\xc0\xed\xe8\xec\xe5\\\xce\xed\xe3\xee\xe8\xed\xe3\xe8\\!_35_\xcb\xe5\xf2\xee_2024\\DreamCast-1\\\xdf \xf1\xf2\xe0\xeb \xf1\xe0\xec\xfb\xec \xf1\xe8\xeb\xfc\xed\xfb\xec \xf1 \xef\xf0\xee\xe2\xe0\xeb\xfc\xed\xfb\xec \xed\xe0\xe2\xfb\xea\xee\xec \xab\xed\xe5\xed\xee\xf0\xec\xe0\xeb\xfc\xed\xee\xe5 \xf1\xee\xf1\xf2\xee\xff\xed\xe8\xe5\xbb, \xff \xf0\xe0\xe7\xf0\xf3\xf8\xf3 \xe2\xf1\xb8\\[DC] Hazurewaku - 03_Telegram_HEVC.mkv" -i "G:\\\xc0\xed\xe8\xec\xe5\\\xce\xed\xe3\xee\xe8\xed\xe3\xe8\\!_35_\xcb\xe5\xf2\xee_2024\\DreamCast-1\\\xdf \xf1\xf2\xe0\xeb \xf1\xe0\xec\xfb\xec \xf1\xe8\xeb\xfc\xed\xfb\xec \xf1 \xef\xf0\xee\xe2\xe0\xeb\xfc\xed\xfb\xec \xed\xe0\xe2\xfb\xea\xee\xec \xab\xed\xe5\xed\xee\xf0\xec\xe0\xeb\xfc\xed\xee\xe5 \xf1\xee\xf1\xf2\xee\xff\xed\xe8\xe5\xbb, \xff \xf0\xe0\xe7\xf0\xf3\xf8\xf3 \xe2\xf1\xb8\\[DC] Hazurewaku - 03_Telegram.mp4" -lavfi "[0:v]settb=AVTB,setpts=PTS-STARTPTS,format=pix_fmts=yuv420p10,fps=24000/1001,scale=1920:1080:flags=bicubic[main];[1:v]settb=AVTB,setpts=PTS-STARTPTS,format=pix_fmts=yuv420p,fps=24000/1001,scale=1920:1080:flags=bicubic[ref];[main][ref]ssim=eof_action=endall:stats_file='D\\:/Convert/FFMetrics/logs/ssim_logfile-6.txt'" -f null -
Input #0, matroska,webm, from 'G:\Аниме\Онгоинги\!_35_Лето_2024\DreamCast-1\Я стал самым сильным с провальным навыком «ненормальное состояние», я разрушу всё\[DC] Hazurewaku - 03_Telegram_HEVC.mkv':
  Metadata:
    COMPATIBLE_BRANDS: isomiso2avc1mp41
    MAJOR_BRAND     : isom
    MINOR_VERSION   : 512
    ENCODER         : Lavf61.7.100
  Duration: 00:24:17.71, start: -0.021000, bitrate: 1483 kb/s
  Stream #0:0: Video: hevc (Main 10), yuv420p10le(tv, bt709, progressive), 1920x1080 [SAR 1:1 DAR 16:9], 23.98 fps, 23.98 tbr, 1k tbn (default)
      Metadata:
        HANDLER_NAME    : VideoHandler
        VENDOR_ID       : [0][0][0][0]
        ENCODER         : Lavc61.19.100 libx265
        BPS             : 1286921
        DURATION        : 00:24:16.538708333
        NUMBER_OF_FRAMES: 34922
        NUMBER_OF_BYTES : 234306222
        _STATISTICS_WRITING_APP: mkvpropedit v66.0.0 ('Josie') 64-bit
        _STATISTICS_WRITING_DATE_UTC: 2025-05-11 14:41:09
        _STATISTICS_TAGS: BPS DURATION NUMBER_OF_FRAMES NUMBER_OF_BYTES
  Stream #0:1: Audio: aac (LC), 48000 Hz, stereo, fltp (default)
      Metadata:
        HANDLER_NAME    : SoundHandler
        VENDOR_ID       : [0][0][0][0]
        ENCODER         : Lavc61.19.100 aac
        BPS             : 193251
        DURATION        : 00:24:17.706000000
        NUMBER_OF_FRAMES: 68331
        NUMBER_OF_BYTES : 35212952
        _STATISTICS_WRITING_APP: mkvpropedit v66.0.0 ('Josie') 64-bit
        _STATISTICS_WRITING_DATE_UTC: 2025-05-11 14:41:09
        _STATISTICS_TAGS: BPS DURATION NUMBER_OF_FRAMES NUMBER_OF_BYTES
Input #1, mov,mp4,m4a,3gp,3g2,mj2, from 'G:\Аниме\Онгоинги\!_35_Лето_2024\DreamCast-1\Я стал самым сильным с провальным навыком «ненормальное состояние», я разрушу всё\[DC] Hazurewaku - 03_Telegram.mp4':
  Metadata:
    major_brand     : isom
    minor_version   : 512
    compatible_brands: isomiso2avc1mp41
    encoder         : Lavf61.1.100
  Duration: 00:24:17.65, start: 0.000000, bitrate: 3762 kb/s
  Stream #1:0[0x1](und): Video: h264 (High) (avc1 / 0x31637661), yuv420p(tv, bt709, progressive), 1920x1080 [SAR 1:1 DAR 16:9], 3617 kb/s, 23.98 fps, 23.98 tbr, 24k tbn (default)
      Metadata:
        handler_name    : VideoHandler
        vendor_id       : [0][0][0][0]
        encoder         : Lavc61.3.100 h264_qsv
  Stream #1:1[0x2](und): Audio: aac (HE-AACv2) (mp4a / 0x6134706D), 48000 Hz, stereo, fltp, 144 kb/s (default)
      Metadata:
        handler_name    : SoundHandler
        vendor_id       : [0][0][0][0]
Stream mapping:
  Stream #0:0 (hevc) -> settb:default
  Stream #1:0 (h264) -> settb:default
  ssim:default -> Stream #0:0 (wrapped_avframe)
  Stream #0:1 -> #0:1 (aac (native) -> pcm_s16le (native))
Output #0, null, to 'pipe:':
  Metadata:
    COMPATIBLE_BRANDS: isomiso2avc1mp41
    MAJOR_BRAND     : isom
    MINOR_VERSION   : 512
    encoder         : Lavf61.7.100
  Stream #0:0: Video: wrapped_avframe, yuv420p10le(tv, bt709, progressive), 1920x1080 [SAR 1:1 DAR 16:9], q=2-31, 200 kb/s, 23.98 fps, 23.98 tbn
      Metadata:
        encoder         : Lavc61.19.100 wrapped_avframe
  Stream #0:1: Audio: pcm_s16le, 48000 Hz, stereo, s16, 1536 kb/s (default)
      Metadata:
        HANDLER_NAME    : SoundHandler
        VENDOR_ID       : [0][0][0][0]
        _STATISTICS_TAGS: BPS DURATION NUMBER_OF_FRAMES NUMBER_OF_BYTES
        BPS             : 193251
        DURATION        : 00:24:17.706000000
        NUMBER_OF_FRAMES: 68331
        NUMBER_OF_BYTES : 35212952
        _STATISTICS_WRITING_APP: mkvpropedit v66.0.0 ('Josie') 64-bit
        _STATISTICS_WRITING_DATE_UTC: 2025-05-11 14:41:09
        encoder         : Lavc61.19.100 pcm_s16le
frame=  160 fps=0.0 q=-0.0 size=N/A time=00:00:06.67 bitrate=N/A speed=13.1x    frame=  324 fps=313 q=-0.0 size=N/A time=00:00:13.51 bitrate=N/A speed=13.1x    frame=  498 fps=323 q=-0.0 size=N/A time=00:00:20.77 bitrate=N/A speed=13.5x    frame=  701 fps=339 q=-0.0 size=N/A time=00:00:29.23 bitrate=N/A speed=14.2x    frame=  878 fps=340 q=-0.0 size=N/A time=00:00:36.61 bitrate=N/A speed=14.2x    frame= 1068 fps=345 q=-0.0 size=N/A time=00:00:44.54 bitrate=N/A speed=14.4x    frame= 1226 fps=340 q=-0.0 size=N/A time=00:00:51.13 bitrate=N/A speed=14.2x    frame= 1457 fps=353 q=-0.0 size=N/A time=00:01:00.76 bitrate=N/A speed=14.7x    frame= 1700 fps=366 q=-0.0 size=N/A time=00:01:10.90 bitrate=N/A speed=15.3x    frame= 1948 fps=378 q=-0.0 size=N/A time=00:01:21.24 bitrate=N/A speed=15.8x    frame= 2197 fps=387 q=-0.0 size=N/A time=00:01:31.63 bitrate=N/A speed=16.2x    frame= 2437 fps=394 q=-0.0 size=N/A time=00:01:41.64 bitrate=N/A speed=16.4x    frame= 2670 fps=398 q=-0.0 size=N/A time=00:01:51.36 bitrate=N/A speed=16.6x    frame= 2921 fps=404 q=-0.0 size=N/A time=00:02:01.83 bitrate=N/A speed=16.9x    frame= 3174 fps=411 q=-0.0 size=N/A time=00:02:12.38 bitrate=N/A speed=17.1x    frame= 3400 fps=412 q=-0.0 size=N/A time=00:02:21.80 bitrate=N/A speed=17.2x    frame= 3642 fps=415 q=-0.0 size=N/A time=00:02:31.90 bitrate=N/A speed=17.3x    frame= 3848 fps=415 q=-0.0 size=N/A time=00:02:40.49 bitrate=N/A speed=17.3x    frame= 4088 fps=417 q=-0.0 size=N/A time=00:02:50.50 bitrate=N/A speed=17.4x    frame= 4340 fps=421 q=-0.0 size=N/A time=00:03:01.01 bitrate=N/A speed=17.5x    frame= 4579 fps=423 q=-0.0 size=N/A time=00:03:10.98 bitrate=N/A speed=17.6x    frame= 4740 fps=418 q=-0.0 size=N/A time=00:03:17.69 bitrate=N/A speed=17.4x    frame= 4964 fps=419 q=-0.0 size=N/A time=00:03:27.04 bitrate=N/A speed=17.5x    frame= 5178 fps=418 q=-0.0 size=N/A time=00:03:35.96 bitrate=N/A speed=17.4x    frame= 5411 fps=420 q=-0.0 size=N/A time=00:03:45.68 bitrate=N/A speed=17.5x    frame= 5627 fps=420 q=-0.0 size=N/A time=00:03:54.69 bitrate=N/A speed=17.5x    frame= 5858 fps=421 q=-0.0 size=N/A time=00:04:04.32 bitrate=N/A speed=17.5x    frame= 6104 fps=423 q=-0.0 size=N/A time=00:04:14.58 bitrate=N/A speed=17.6x    frame= 6323 fps=423 q=-0.0 size=N/A time=00:04:23.72 bitrate=N/A speed=17.6x    frame= 6476 fps=419 q=-0.0 size=N/A time=00:04:30.10 bitrate=N/A speed=17.5x    frame= 6644 fps=416 q=-0.0 size=N/A time=00:04:37.11 bitrate=N/A speed=17.3x    frame= 6856 fps=416 q=-0.0 size=N/A time=00:04:45.95 bitrate=N/A speed=17.3x    frame= 7049 fps=414 q=-0.0 size=N/A time=00:04:54.00 bitrate=N/A speed=17.3x    frame= 7248 fps=413 q=-0.0 size=N/A time=00:05:02.30 bitrate=N/A speed=17.2x    frame= 7428 fps=412 q=-0.0 size=N/A time=00:05:09.80 bitrate=N/A speed=17.2x    frame= 7593 fps=409 q=-0.0 size=N/A time=00:05:16.69 bitrate=N/A speed=17.1x    frame= 7749 fps=406 q=-0.0 size=N/A time=00:05:23.19 bitrate=N/A speed=16.9x    frame= 7958 fps=406 q=-0.0 size=N/A time=00:05:31.91 bitrate=N/A speed=16.9x    frame= 8156 fps=405 q=-0.0 size=N/A time=00:05:40.17 bitrate=N/A speed=16.9x    frame= 8346 fps=405 q=-0.0 size=N/A time=00:05:48.09 bitrate=N/A speed=16.9x    frame= 8531 fps=403 q=-0.0 size=N/A time=00:05:55.81 bitrate=N/A speed=16.8x    frame= 8767 fps=405 q=-0.0 size=N/A time=00:06:05.65 bitrate=N/A speed=16.9x    frame= 9039 fps=407 q=-0.0 size=N/A time=00:06:17.00 bitrate=N/A speed=  17x    frame= 9281 fps=409 q=-0.0 size=N/A time=00:06:27.09 bitrate=N/A speed=17.1x    frame= 9549 fps=411 q=-0.0 size=N/A time=00:06:38.27 bitrate=N/A speed=17.1x    frame= 9815 fps=414 q=-0.0 size=N/A time=00:06:49.36 bitrate=N/A speed=17.3x    frame=10085 fps=416 q=-0.0 size=N/A time=00:07:00.62 bitrate=N/A speed=17.3x    frame=10341 fps=418 q=-0.0 size=N/A time=00:07:11.30 bitrate=N/A speed=17.4x    frame=10593 fps=419 q=-0.0 size=N/A time=00:07:21.81 bitrate=N/A speed=17.5x    frame=10843 fps=420 q=-0.0 size=N/A time=00:07:32.24 bitrate=N/A speed=17.5x    frame=11084 fps=421 q=-0.0 size=N/A time=00:07:42.29 bitrate=N/A speed=17.6x    frame=11332 fps=422 q=-0.0 size=N/A time=00:07:52.63 bitrate=N/A speed=17.6x    frame=11588 fps=424 q=-0.0 size=N/A time=00:08:03.31 bitrate=N/A speed=17.7x    frame=11800 fps=423 q=-0.0 size=N/A time=00:08:12.15 bitrate=N/A speed=17.7x    frame=12031 fps=424 q=-0.0 size=N/A time=00:08:21.79 bitrate=N/A speed=17.7x    frame=12247 fps=424 q=-0.0 size=N/A time=00:08:30.80 bitrate=N/A speed=17.7x    frame=12458 fps=424 q=-0.0 size=N/A time=00:08:39.60 bitrate=N/A speed=17.7x    frame=12687 fps=424 q=-0.0 size=N/A time=00:08:49.15 bitrate=N/A speed=17.7x    frame=12921 fps=424 q=-0.0 size=N/A time=00:08:58.91 bitrate=N/A speed=17.7x    frame=13113 fps=424 q=-0.0 size=N/A time=00:09:06.92 bitrate=N/A speed=17.7x    frame=13342 fps=424 q=-0.0 size=N/A time=00:09:16.47 bitrate=N/A speed=17.7x    frame=13542 fps=423 q=-0.0 size=N/A time=00:09:24.81 bitrate=N/A speed=17.7x    frame=13752 fps=423 q=-0.0 size=N/A time=00:09:33.57 bitrate=N/A speed=17.7x    frame=13943 fps=422 q=-0.0 size=N/A time=00:09:41.53 bitrate=N/A speed=17.6x    frame=14147 fps=422 q=-0.0 size=N/A time=00:09:50.04 bitrate=N/A speed=17.6x    frame=14378 fps=422 q=-0.0 size=N/A time=00:09:59.68 bitrate=N/A speed=17.6x    frame=14632 fps=423 q=-0.0 size=N/A time=00:10:10.27 bitrate=N/A speed=17.7x    frame=14868 fps=424 q=-0.0 size=N/A time=00:10:20.11 bitrate=N/A speed=17.7x    frame=15091 fps=424 q=-0.0 size=N/A time=00:10:29.42 bitrate=N/A speed=17.7x    frame=15308 fps=424 q=-0.0 size=N/A time=00:10:38.47 bitrate=N/A speed=17.7x    frame=15557 fps=425 q=-0.0 size=N/A time=00:10:48.85 bitrate=N/A speed=17.7x    frame=15792 fps=425 q=-0.0 size=N/A time=00:10:58.65 bitrate=N/A speed=17.7x    frame=16037 fps=426 q=-0.0 size=N/A time=00:11:08.87 bitrate=N/A speed=17.8x    frame=16257 fps=426 q=-0.0 size=N/A time=00:11:18.05 bitrate=N/A speed=17.8x    frame=16483 fps=426 q=-0.0 size=N/A time=00:11:27.47 bitrate=N/A speed=17.8x    frame=16705 fps=426 q=-0.0 size=N/A time=00:11:36.73 bitrate=N/A speed=17.8x    frame=16948 fps=427 q=-0.0 size=N/A time=00:11:46.87 bitrate=N/A speed=17.8x    frame=17180 fps=427 q=-0.0 size=N/A time=00:11:56.54 bitrate=N/A speed=17.8x    frame=17410 fps=427 q=-0.0 size=N/A time=00:12:06.14 bitrate=N/A speed=17.8x    frame=17660 fps=428 q=-0.0 size=N/A time=00:12:16.56 bitrate=N/A speed=17.9x    frame=17907 fps=429 q=-0.0 size=N/A time=00:12:26.87 bitrate=N/A speed=17.9x    frame=18140 fps=429 q=-0.0 size=N/A time=00:12:36.58 bitrate=N/A speed=17.9x    frame=18368 fps=429 q=-0.0 size=N/A time=00:12:46.09 bitrate=N/A speed=17.9x    frame=18586 fps=429 q=-0.0 size=N/A time=00:12:55.19 bitrate=N/A speed=17.9x    frame=18834 fps=430 q=-0.0 size=N/A time=00:13:05.53 bitrate=N/A speed=17.9x    frame=19079 fps=430 q=-0.0 size=N/A time=00:13:15.75 bitrate=N/A speed=17.9x    frame=19326 fps=431 q=-0.0 size=N/A time=00:13:26.05 bitrate=N/A speed=  18x    frame=19515 fps=430 q=-0.0 size=N/A time=00:13:33.93 bitrate=N/A speed=17.9x    frame=19712 fps=429 q=-0.0 size=N/A time=00:13:42.15 bitrate=N/A speed=17.9x    frame=19933 fps=429 q=-0.0 size=N/A time=00:13:51.37 bitrate=N/A speed=17.9x    frame=20128 fps=429 q=-0.0 size=N/A time=00:13:59.50 bitrate=N/A speed=17.9x    frame=20352 fps=429 q=-0.0 size=N/A time=00:14:08.84 bitrate=N/A speed=17.9x    frame=20574 fps=429 q=-0.0 size=N/A time=00:14:18.10 bitrate=N/A speed=17.9x    frame=20786 fps=429 q=-0.0 size=N/A time=00:14:26.94 bitrate=N/A speed=17.9x    frame=21016 fps=429 q=-0.0 size=N/A time=00:14:36.54 bitrate=N/A speed=17.9x    frame=21266 fps=430 q=-0.0 size=N/A time=00:14:46.96 bitrate=N/A speed=17.9x    frame=21532 fps=430 q=-0.0 size=N/A time=00:14:58.06 bitrate=N/A speed=  18x    frame=21795 fps=431 q=-0.0 size=N/A time=00:15:09.03 bitrate=N/A speed=  18x    frame=22051 fps=432 q=-0.0 size=N/A time=00:15:19.71 bitrate=N/A speed=  18x    frame=22278 fps=432 q=-0.0 size=N/A time=00:15:29.17 bitrate=N/A speed=  18x    frame=22526 fps=432 q=-0.0 size=N/A time=00:15:39.52 bitrate=N/A speed=  18x    frame=22739 fps=432 q=-0.0 size=N/A time=00:15:48.40 bitrate=N/A speed=  18x    frame=22961 fps=432 q=-0.0 size=N/A time=00:15:57.66 bitrate=N/A speed=  18x    frame=23151 fps=432 q=-0.0 size=N/A time=00:16:05.58 bitrate=N/A speed=  18x    frame=23377 fps=432 q=-0.0 size=N/A time=00:16:15.01 bitrate=N/A speed=  18x    frame=23610 fps=432 q=-0.0 size=N/A time=00:16:24.73 bitrate=N/A speed=  18x    frame=23833 fps=432 q=-0.0 size=N/A time=00:16:34.03 bitrate=N/A speed=  18x    frame=24059 fps=432 q=-0.0 size=N/A time=00:16:43.46 bitrate=N/A speed=  18x    frame=24284 fps=432 q=-0.0 size=N/A time=00:16:52.84 bitrate=N/A speed=  18x    frame=24530 fps=432 q=-0.0 size=N/A time=00:17:03.10 bitrate=N/A speed=  18x    frame=24747 fps=432 q=-0.0 size=N/A time=00:17:12.15 bitrate=N/A speed=  18x    frame=24956 fps=432 q=-0.0 size=N/A time=00:17:20.87 bitrate=N/A speed=  18x    frame=25174 fps=432 q=-0.0 size=N/A time=00:17:29.96 bitrate=N/A speed=  18x    frame=25410 fps=432 q=-0.0 size=N/A time=00:17:39.80 bitrate=N/A speed=  18x    frame=25665 fps=433 q=-0.0 size=N/A time=00:17:50.44 bitrate=N/A speed=  18x    frame=25913 fps=433 q=-0.0 size=N/A time=00:18:00.78 bitrate=N/A speed=18.1x    frame=26171 fps=434 q=-0.0 size=N/A time=00:18:11.54 bitrate=N/A speed=18.1x    frame=26420 fps=434 q=-0.0 size=N/A time=00:18:21.93 bitrate=N/A speed=18.1x    frame=26660 fps=434 q=-0.0 size=N/A time=00:18:31.94 bitrate=N/A speed=18.1x    frame=26893 fps=434 q=-0.0 size=N/A time=00:18:41.66 bitrate=N/A speed=18.1x    frame=27131 fps=435 q=-0.0 size=N/A time=00:18:51.58 bitrate=N/A speed=18.1x    frame=27383 fps=435 q=-0.0 size=N/A time=00:19:02.09 bitrate=N/A speed=18.2x    frame=27629 fps=436 q=-0.0 size=N/A time=00:19:12.35 bitrate=N/A speed=18.2x    frame=27880 fps=436 q=-0.0 size=N/A time=00:19:22.82 bitrate=N/A speed=18.2x    frame=28148 fps=437 q=-0.0 size=N/A time=00:19:34.00 bitrate=N/A speed=18.2x    frame=28418 fps=437 q=-0.0 size=N/A time=00:19:45.26 bitrate=N/A speed=18.2x    frame=28666 fps=438 q=-0.0 size=N/A time=00:19:55.61 bitrate=N/A speed=18.3x    frame=28923 fps=438 q=-0.0 size=N/A time=00:20:06.33 bitrate=N/A speed=18.3x    frame=29189 fps=439 q=-0.0 size=N/A time=00:20:17.42 bitrate=N/A speed=18.3x    frame=29400 fps=438 q=-0.0 size=N/A time=00:20:26.22 bitrate=N/A speed=18.3x    frame=29643 fps=439 q=-0.0 size=N/A time=00:20:36.36 bitrate=N/A speed=18.3x    frame=29894 fps=439 q=-0.0 size=N/A time=00:20:46.82 bitrate=N/A speed=18.3x    frame=30137 fps=439 q=-0.0 size=N/A time=00:20:56.96 bitrate=N/A speed=18.3x    frame=30385 fps=440 q=-0.0 size=N/A time=00:21:07.30 bitrate=N/A speed=18.3x    frame=30656 fps=440 q=-0.0 size=N/A time=00:21:18.61 bitrate=N/A speed=18.4x    frame=30874 fps=440 q=-0.0 size=N/A time=00:21:27.70 bitrate=N/A speed=18.4x    frame=31073 fps=440 q=-0.0 size=N/A time=00:21:36.00 bitrate=N/A speed=18.3x    frame=31269 fps=439 q=-0.0 size=N/A time=00:21:44.17 bitrate=N/A speed=18.3x    frame=31508 fps=439 q=-0.0 size=N/A time=00:21:54.14 bitrate=N/A speed=18.3x    frame=31756 fps=440 q=-0.0 size=N/A time=00:22:04.48 bitrate=N/A speed=18.3x    frame=31994 fps=440 q=-0.0 size=N/A time=00:22:14.41 bitrate=N/A speed=18.3x    frame=32186 fps=440 q=-0.0 size=N/A time=00:22:22.42 bitrate=N/A speed=18.3x    frame=32386 fps=439 q=-0.0 size=N/A time=00:22:30.76 bitrate=N/A speed=18.3x    frame=32582 fps=439 q=-0.0 size=N/A time=00:22:38.94 bitrate=N/A speed=18.3x    frame=32790 fps=438 q=-0.0 size=N/A time=00:22:47.61 bitrate=N/A speed=18.3x    frame=32988 fps=438 q=-0.0 size=N/A time=00:22:55.87 bitrate=N/A speed=18.3x    frame=33153 fps=437 q=-0.0 size=N/A time=00:23:02.75 bitrate=N/A speed=18.2x    frame=33323 fps=437 q=-0.0 size=N/A time=00:23:09.84 bitrate=N/A speed=18.2x    frame=33507 fps=436 q=-0.0 size=N/A time=00:23:17.52 bitrate=N/A speed=18.2x    frame=33698 fps=436 q=-0.0 size=N/A time=00:23:25.48 bitrate=N/A speed=18.2x    frame=33857 fps=435 q=-0.0 size=N/A time=00:23:32.11 bitrate=N/A speed=18.1x    frame=34029 fps=434 q=-0.0 size=N/A time=00:23:39.29 bitrate=N/A speed=18.1x    frame=34224 fps=434 q=-0.0 size=N/A time=00:23:47.42 bitrate=N/A speed=18.1x    frame=34427 fps=433 q=-0.0 size=N/A time=00:23:55.89 bitrate=N/A speed=18.1x    frame=34634 fps=433 q=-0.0 size=N/A time=00:24:04.52 bitrate=N/A speed=18.1x    frame=34861 fps=433 q=-0.0 size=N/A time=00:24:13.99 bitrate=N/A speed=18.1x    [Parsed_ssim_10 @ 000002d338d6a640] SSIM Y:0.992687 (21.358903) U:0.994608 (22.682394) V:0.993952 (22.183854) All:0.993218 (21.686302)
[out#0/null @ 000002d338d26140] video:15006KiB audio:273324KiB subtitle:0KiB other streams:0KiB global headers:0KiB muxing overhead: unknown
frame=34922 fps=433 q=-0.0 Lsize=N/A time=00:24:16.53 bitrate=N/A speed=18.1x    
